{
  "accessors": [
    {
      "bufferView": 2,
      "componentType": 5126,
      "count": 120,
      "max": [
        9.0214576721191406,
        -10.58991813659668,
        0.41001901030540466
      ],
      "min": [
        9.000096321105957,
        -15.288620948791504,
        -4.2886829376220703
      ],
      "type": "VEC3"
    },
    {
      "bufferView": 2,
      "byteOffset": 1440,
      "componentType": 5126,
      "count": 120,
      "max": [
        0.92501866817474365,
        0.38184809684753418,
        0.38183483481407166
      ],
      "min": [
        0.92421501874923706,
        -0.38183483481407166,
        -0.38185510039329529
      ],
      "type": "VEC3"
    },
    {
      "bufferView": 1,
      "componentType": 5126,
      "count": 120,
      "max": [
        0.24062399566173553,
        0.73710900545120239
      ],
      "min": [
        0.0016990000149235129,
        0.49818301200866699
      ],
      "type": "VEC2"
    },
    {
      "bufferView": 0,
      "componentType": 5125,
      "count": 480,
      "max": [
        119
      ],
      "min": [
        0
      ],
      "type": "SCALAR"
    },
    {
      "bufferView": 2,
      "byteOffset": 2880,
      "componentType": 5126,
      "count": 21,
      "max": [
        9.2006378173828125,
        -12.631463050842285,
        -1.6391279697418213
      ],
      "min": [
        9.2006378173828125,
        -13.243184089660645,
        -2.2508499622344971
      ],
      "type": "VEC3"
    },
    {
      "bufferView": 2,
      "byteOffset": 3132,
      "componentType": 5126,
      "count": 21,
      "max": [
        1,
        0.036235012114048004,
        0.036232016980648041
      ],
      "min": [
        0.99934333562850952,
        -0.036235012114048004,
        -0.036233019083738327
      ],
      "type": "VEC3"
    },
    {
      "bufferView": 1,
      "byteOffset": 960,
      "componentType": 5126,
      "count": 21,
      "max": [
        0.75332200527191162,
        0.93674600124359131
      ],
      "min": [
        0.72221601009368896,
        0.90564000606536865
      ],
      "type": "VEC2"
    },
    {
      "bufferView": 0,
      "byteOffset": 1920,
      "componentType": 5125,
      "count": 60,
      "max": [
        20
      ],
      "min": [
        0
      ],
      "type": "SCALAR"
    },
    {
      "bufferView": 2,
      "byteOffset": 3384,
      "componentType": 5126,
      "count": 2085,
      "max": [
        9.3079090118408203,
        -9.8158578872680664,
        1.1840800046920776
      ],
      "min": [
        6.5742568969726562,
        -16.062681198120117,
        -5.0627422332763672
      ],
      "type": "VEC3"
    },
    {
      "bufferView": 2,
      "byteOffset": 28404,
      "componentType": 5126,
      "count": 2085,
      "max": [
        0.99999189376831055,
        1,
        1
      ],
      "min": [
        -0.99999189376831055,
        -1,
        -1
      ],
      "type": "VEC3"
    },
    {
      "bufferView": 1,
      "byteOffset": 1128,
      "componentType": 5126,
      "count": 2085,
      "max": [
        1.0008130073547363,
        1.0036089420318604
      ],
      "min": [
        1.5999999959603883e-05,
        0.025017000734806061
      ],
      "type": "VEC2"
    },
    {
      "bufferView": 0,
      "byteOffset": 2160,
      "componentType": 5125,
      "count": 9600,
      "max": [
        2084
      ],
      "min": [
        0
      ],
      "type": "SCALAR"
    },
    {
      "bufferView": 2,
      "byteOffset": 53424,
      "componentType": 5126,
      "count": 802,
      "max": [
        8.7989482879638672,
        -10.778384208679199,
        -0.18067799508571625
      ],
      "min": [
        7.5511479377746582,
        -11.872252464294434,
        -3.7093009948730469
      ],
      "type": "VEC3"
    },
    {
      "bufferView": 2,
      "byteOffset": 63048,
      "componentType": 5126,
      "count": 802,
      "max": [
        1,
        1,
        1
      ],
      "min": [
        -1,
        -1,
        -1
      ],
      "type": "VEC3"
    },
    {
      "bufferView": 1,
      "byteOffset": 17808,
      "componentType": 5126,
      "count": 802,
      "max": [
        0.97840601205825806,
        0.98223197460174561
      ],
      "min": [
        0.00097699998877942562,
        0.00099800003226846457
      ],
      "type": "VEC2"
    },
    {
      "bufferView": 0,
      "byteOffset": 40560,
      "componentType": 5125,
      "count": 1731,
      "max": [
        801
      ],
      "min": [
        0
      ],
      "type": "SCALAR"
    },
    {
      "bufferView": 2,
      "byteOffset": 72672,
      "componentType": 5126,
      "count": 2204,
      "max": [
        8.8289480209350586,
        -10.869714736938477,
        -0.33910098671913147
      ],
      "min": [
        7.3700661659240723,
        -14.314824104309082,
        -3.5493929386138916
      ],
      "type": "VEC3"
    },
    {
      "bufferView": 2,
      "byteOffset": 99120,
      "componentType": 5126,
      "count": 2204,
      "max": [
        1,
        1,
        1
      ],
      "min": [
        -1,
        -1,
        -1
      ],
      "type": "VEC3"
    },
    {
      "bufferView": 1,
      "byteOffset": 24224,
      "componentType": 5126,
      "count": 2204,
      "max": [
        0.9893680214881897,
        0.99844300746917725
      ],
      "min": [
        0.0027069998905062675,
        0.26770201325416565
      ],
      "type": "VEC2"
    },
    {
      "bufferView": 0,
      "byteOffset": 47484,
      "componentType": 5125,
      "count": 4152,
      "max": [
        2203
      ],
      "min": [
        0
      ],
      "type": "SCALAR"
    },
    {
      "bufferView": 2,
      "byteOffset": 125568,
      "componentType": 5126,
      "count": 8373,
      "max": [
        9.257908821105957,
        -10.465909004211426,
        0.53402900695800781
      ],
      "min": [
        6.6242580413818359,
        -15.412633895874023,
        -4.412693977355957
      ],
      "type": "VEC3"
    },
    {
      "bufferView": 2,
      "byteOffset": 226044,
      "componentType": 5126,
      "count": 8373,
      "max": [
        1,
        1,
        1
      ],
      "min": [
        -1,
        -1,
        -1
      ],
      "type": "VEC3"
    },
    {
      "bufferView": 1,
      "byteOffset": 41856,
      "componentType": 5126,
      "count": 8373,
      "max": [
        0.95973300933837891,
        1
      ],
      "min": [
        0.0009459999855607748,
        0.00099800003226846457
      ],
      "type": "VEC2"
    },
    {
      "bufferView": 0,
      "byteOffset": 64092,
      "componentType": 5125,
      "count": 30030,
      "max": [
        8372
      ],
      "min": [
        0
      ],
      "type": "SCALAR"
    },
    {
      "bufferView": 2,
      "byteOffset": 326520,
      "componentType": 5126,
      "count": 513,
      "max": [
        9.2106180191040039,
        -12.606201171875,
        -1.6138659715652466
      ],
      "min": [
        9.1600017547607422,
        -13.26844596862793,
        -2.2761120796203613
      ],
      "type": "VEC3"
    },
    {
      "bufferView": 2,
      "byteOffset": 332676,
      "componentType": 5126,
      "count": 513,
      "max": [
        1,
        1,
        1
      ],
      "min": [
        -0.00010800000018207356,
        -1,
        -1
      ],
      "type": "VEC3"
    },
    {
      "bufferView": 1,
      "byteOffset": 108840,
      "componentType": 5126,
      "count": 513,
      "max": [
        0.81351298093795776,
        0.99734300374984741
      ],
      "min": [
        0.043701000511646271,
        0.90541499853134155
      ],
      "type": "VEC2"
    },
    {
      "bufferView": 0,
      "byteOffset": 184212,
      "componentType": 5125,
      "count": 1671,
      "max": [
        512
      ],
      "min": [
        0
      ],
      "type": "SCALAR"
    },
    {
      "bufferView": 2,
      "byteOffset": 338832,
      "componentType": 5126,
      "count": 3636,
      "max": [
        8.8152103424072266,
        -11.006229400634766,
        -0.013895000331103802
      ],
      "min": [
        7.6216669082641602,
        -14.868417739868164,
        -3.8760828971862793
      ],
      "type": "VEC3"
    },
    {
      "bufferView": 2,
      "byteOffset": 382464,
      "componentType": 5126,
      "count": 3636,
      "max": [
        1,
        1,
        1
      ],
      "min": [
        -1,
        -1,
        -1
      ],
      "type": "VEC3"
    },
    {
      "bufferView": 1,
      "byteOffset": 112944,
      "componentType": 5126,
      "count": 3636,
      "max": [
        0.96244800090789795,
        0.99900197982788086
      ],
      "min": [
        0.00094699999317526817,
        0.00099800003226846457
      ],
      "type": "VEC2"
    },
    {
      "bufferView": 0,
      "byteOffset": 190896,
      "componentType": 5125,
      "count": 9840,
      "max": [
        3635
      ],
      "min": [
        0
      ],
      "type": "SCALAR"
    },
    {
      "bufferView": 2,
      "byteOffset": 426096,
      "componentType": 5126,
      "count": 87,
      "max": [
        8.7621431350708008,
        -10.778384208679199,
        -0.2474370002746582
      ],
      "min": [
        7.6111469268798828,
        -11.832462310791016,
        -3.6425390243530273
      ],
      "type": "VEC3"
    },
    {
      "bufferView": 2,
      "byteOffset": 427140,
      "componentType": 5126,
      "count": 87,
      "max": [
        1,
        0.99999797344207764,
        0.82191509008407593
      ],
      "min": [
        -1,
        -0.0022970009595155716,
        -0.82191431522369385
      ],
      "type": "VEC3"
    },
    {
      "bufferView": 1,
      "byteOffset": 142032,
      "componentType": 5126,
      "count": 87,
      "max": [
        0.97840499877929688,
        0.9767259955406189
      ],
      "min": [
        0.18886199593544006,
        0.00099800003226846457
      ],
      "type": "VEC2"
    },
    {
      "bufferView": 0,
      "byteOffset": 230256,
      "componentType": 5125,
      "count": 207,
      "max": [
        86
      ],
      "min": [
        0
      ],
      "type": "SCALAR"
    }
  ],
  "asset": {
    "extras": {
      "author": "Scuderia Morello (https://sketchfab.com/scudmorello)",
      "license": "CC-BY-4.0 (http://creativecommons.org/licenses/by/4.0/)",
      "source": "https://sketchfab.com/3d-models/morello-cerchi-rims-murgese-iii-4df952a1f6024b96beb6f9d5955b4b28",
      "title": "Morello Cerchi - Rims - Murgese III"
    },
    "generator": "Sketchfab-7.71.0",
    "version": "2.0"
  },
  "bufferViews": [
    {
      "buffer": 0,
      "byteLength": 231084,
      "byteOffset": 0,
      "name": "floatBufferViews",
      "target": 34963
    },
    {
      "buffer": 0,
      "byteLength": 142728,
      "byteOffset": 231084,
      "byteStride": 8,
      "name": "floatBufferViews",
      "target": 34962
    },
    {
      "buffer": 0,
      "byteLength": 428184,
      "byteOffset": 373812,
      "byteStride": 12,
      "name": "floatBufferViews",
      "target": 34962
    }
  ],
  "buffers": [
    {
      "byteLength": 801996,
      "uri": "scene.bin"
    }
  ],
  "images": [
    {
      "uri": "textures/lambert8SG_baseColor.png"
    }
  ],
  "materials": [
    {
      "doubleSided": true,
      "emissiveFactor": [
        0,
        0,
        0
      ],
      "name": "blinn16SG",
      "pbrMetallicRoughness": {
        "baseColorFactor": [
          1,
          0,
          0,
          1
        ],
        "metallicFactor": 1,
        "roughnessFactor": 0
      }
    },
    {
      "doubleSided": true,
      "emissiveFactor": [
        0,
        0,
        0
      ],
      "name": "blinn3SG",
      "pbrMetallicRoughness": {
        "baseColorFactor": [
          1,
          0,
          0,
          1
        ],
        "metallicFactor": 1,
        "roughnessFactor": 0
      }
    },
    {
      "doubleSided": true,
      "emissiveFactor": [
        0,
        0,
        0
      ],
      "name": "blinn4SG",
      "pbrMetallicRoughness": {
        "baseColorFactor": [
          0.057297834334599111,
          0.057297834334599111,
          0.057297834334599111,
          1
        ],
        "metallicFactor": 1,
        "roughnessFactor": 1
      }
    },
    {
      "doubleSided": true,
      "emissiveFactor": [
        0,
        0,
        0
      ],
      "name": "blinn5SG",
      "pbrMetallicRoughness": {
        "baseColorFactor": [
          1,
          1,
          1,
          1
        ],
        "metallicFactor": 1,
        "roughnessFactor": 0.18730945121951215
      }
    },
    {
      "doubleSided": true,
      "emissiveFactor": [
        0,
        0,
        0
      ],
      "name": "blinn8SG",
      "pbrMetallicRoughness": {
        "baseColorFactor": [
          0,
          0,
          0,
          1
        ],
        "metallicFactor": 0,
        "roughnessFactor": 1
      }
    },
    {
      "doubleSided": true,
      "emissiveFactor": [
        0,
        0,
        0
      ],
      "name": "blinn9SG",
      "pbrMetallicRoughness": {
        "baseColorFactor": [
          1,
          1,
          0,
          1
        ],
        "metallicFactor": 1,
        "roughnessFactor": 1
      }
    },
    {
      "doubleSided": true,
      "emissiveFactor": [
        0,
        0,
        0
      ],
      "name": "lambert12SG",
      "pbrMetallicRoughness": {
        "baseColorFactor": [
          0.46583485529261448,
          0.46583485529261448,
          0.46583485529261448,
          1
        ],
        "metallicFactor": 1,
        "roughnessFactor": 0.071455792682926789
      }
    },
    {
      "doubleSided": true,
      "emissiveFactor": [
        0,
        0,
        0
      ],
      "name": "lambert2SG",
      "pbrMetallicRoughness": {
        "baseColorFactor": [
          0.01,
          0.01,
          0.01,
          1
        ],
        "metallicFactor": 0,
        "roughnessFactor": 1
      }
    },
    {
      "doubleSided": true,
      "emissiveFactor": [
        0,
        0,
        0
      ],
      "emissiveTexture": {
        "index": 0,
        "texCoord": 0
      },
      "name": "lambert8SG",
      "pbrMetallicRoughness": {
        "baseColorFactor": [
          1,
          1,
          1,
          1
        ],
        "baseColorTexture": {
          "index": 0,
          "texCoord": 0
        },
        "metallicFactor": 0.66634908536585369,
        "roughnessFactor": 1
      }
    }
  ],
  "meshes": [
    {
      "primitives": [
        {
          "attributes": {
            "NORMAL": 1,
            "POSITION": 0,
            "TEXCOORD_0": 2
          },
          "indices": 3,
          "material": 1,
          "mode": 4
        }
      ]
    },
    {
      "primitives": [
        {
          "attributes": {
            "NORMAL": 5,
            "POSITION": 4,
            "TEXCOORD_0": 6
          },
          "indices": 7,
          "material": 5,
          "mode": 4
        }
      ]
    },
    {
      "primitives": [
        {
          "attributes": {
            "NORMAL": 9,
            "POSITION": 8,
            "TEXCOORD_0": 10
          },
          "indices": 11,
          "material": 8,
          "mode": 4
        }
      ]
    },
    {
      "primitives": [
        {
          "attributes": {
            "NORMAL": 13,
            "POSITION": 12,
            "TEXCOORD_0": 14
          },
          "indices": 15,
          "material": 0,
          "mode": 4
        }
      ]
    },
    {
      "primitives": [
        {
          "attributes": {
            "NORMAL": 17,
            "POSITION": 16,
            "TEXCOORD_0": 18
          },
          "indices": 19,
          "material": 2,
          "mode": 4
        }
      ]
    },
    {
      "primitives": [
        {
          "attributes": {
            "NORMAL": 21,
            "POSITION": 20,
            "TEXCOORD_0": 22
          },
          "indices": 23,
          "material": 3,
          "mode": 4
        }
      ]
    },
    {
      "primitives": [
        {
          "attributes": {
            "NORMAL": 25,
            "POSITION": 24,
            "TEXCOORD_0": 26
          },
          "indices": 27,
          "material": 4,
          "mode": 4
        }
      ]
    },
    {
      "primitives": [
        {
          "attributes": {
            "NORMAL": 29,
            "POSITION": 28,
            "TEXCOORD_0": 30
          },
          "indices": 31,
          "material": 6,
          "mode": 4
        }
      ]
    },
    {
      "primitives": [
        {
          "attributes": {
            "NORMAL": 33,
            "POSITION": 32,
            "TEXCOORD_0": 34
          },
          "indices": 35,
          "material": 7,
          "mode": 4
        }
      ]
    }
  ],
  "nodes": [
    {
      "children": [
        1
      ],
      "name": "RootNode (gltf orientation matrix)",
      "rotation": [
        -0.70710678118654746,
        -0,
        -0,
        0.70710678118654757
      ]
    },
    {
      "children": [
        2
      ],
      "name": "RootNode (model correction matrix)"
    },
    {
      "children": [
        3,
        4,
        5,
        6,
        7,
        8,
        9,
        10,
        11
      ],
      "name": "Murgese III - Cerchi Morello.obj.cleaner.materialmerger.gles"
    },
    {
      "mesh": 0,
      "name": ""
    },
    {
      "mesh": 1,
      "name": ""
    },
    {
      "mesh": 2,
      "name": ""
    },
    {
      "mesh": 3,
      "name": ""
    },
    {
      "mesh": 4,
      "name": ""
    },
    {
      "mesh": 5,
      "name": ""
    },
    {
      "mesh": 6,
      "name": ""
    },
    {
      "mesh": 7,
      "name": ""
    },
    {
      "mesh": 8,
      "name": ""
    }
  ],
  "samplers": [
    {
      "magFilter": 9729,
      "minFilter": 9987,
      "wrapS": 10497,
      "wrapT": 10497
    }
  ],
  "scene": 0,
  "scenes": [
    {
      "name": "OSG_Scene",
      "nodes": [
        0
      ]
    }
  ],
  "textures": [
    {
      "sampler": 0,
      "source": 0
    }
  ]
}

